# xmcd
#
# Track frame offsets: 
#        150
#        14540
#        27677
#        40417
#        50862
#        66522
#        88867
#        106982
#        116750
#        138660
#        152092
#        165620
#        184102
#        195972
#        206477
#        221252
#        238375
#
# Disc length: 3320 seconds
#
# Revision: 6
# Processed by: cddbd v1.5.2PL0 Copyright (c) Steve Scherf et al.
# Submitted via: ExactAudioCopy v1.0b3
#
DISCID=030cf611
DTITLE=Corey Harris - Fish Ain't Bitin'
DYEAR=1997
DGENRE=Blues
TTITLE0=High Fever Blues
TTITLE1=Frankie And Johnnie
TTITLE2=Berry Owens Blues
TTITLE3=Take Me Back
TTITLE4=Fish Ain't Bitin'
TTITLE5=Preaching Blues
TTITLE6=Bumble Bee Blues
TTITLE7=God Don't Ever Change
TTITLE8=5-O Blues
TTITLE9=Mama Got Worried
TTITLE10=Worried Life Blues
TTITLE11=High Fever Blues (solo version)
TTITLE12=Jack O'Diamonds
TTITLE13=If You Leave Me
TTITLE14=Moosemilk Blues
TTITLE15=You Got To Move
TTITLE16=Clean Rag
EXTD=COREY HARRIS - Guitar and Vocals. On High Fever Blues, Fish Ain't
EXTD=Bitin', 5-0 Blues, and Clean Rag: KEITH "WOLF" ANDERSON - Trombo
EXTD=ne (solo on Fish Ain't Bitin'), CHARLES JOHNSON - Trombone (excep
EXTD=t on Clean Rag), ANTHONY "TUBA FATS" LACEN - Tuba, HARRY "POINT M
EXTD=AN" M. DENNIS, JR. - Percussion. On Mama Got Worried, Frankie and
EXTD=Johnnie, and Moosemilk Blues: CHRIS SEVERIN - Bass. Brass Arrang
EXTD=ements by LARRY HOFFMAN. Clean Rag arranged by COREY HARRIS and t
EXTD=he band. Produced by COREY HARRIS and LARRY HOFFMAN. Recorded Oct
EXTD=ober 19 and 21, 1996 and mixed December 20 and 21, 1996 at ULTRASONIC
EXTD=STUDIOS, New Orleans, LA. Engineered and mixed by DAVID FARRELL.
EXTD=Mastered January 31, 1997 at MONSTER DISC, Chicago, IL, by JAY O
EXTD='ROURKE, LARRY HOFFMAN and BRUCE IGLAUER. ALLIGATOR ALCD 4850.
EXTT0=
EXTT1=
EXTT2=
EXTT3=
EXTT4=
EXTT5=
EXTT6=
EXTT7=
EXTT8=
EXTT9=
EXTT10=
EXTT11=
EXTT12=
EXTT13=
EXTT14=
EXTT15=
EXTT16=
PLAYORDER=
